<svg xmlns="http://www.w3.org/2000/svg" viewBox="0 0 1200 780" role="img" aria-labelledby="title desc">
  <title id="title">Legal Advisory Platzhalter</title>
  <desc id="desc">Abstrakte Boardroom-Szene mit Linien, Flächen und Gradient.</desc>
  <defs>
    <linearGradient id="g1" x1="0" y1="0" x2="1" y2="1">
      <stop offset="0%" stop-color="#0d1e31"/>
      <stop offset="100%" stop-color="#20476f"/>
    </linearGradient>
    <linearGradient id="g2" x1="0" y1="0" x2="1" y2="0">
      <stop offset="0%" stop-color="#d7c49c" stop-opacity=".95"/>
      <stop offset="100%" stop-color="#b89b63" stop-opacity=".4"/>
    </linearGradient>
  </defs>
  <rect width="1200" height="780" fill="url(#g1)"/>
  <circle cx="960" cy="160" r="180" fill="#2d5b89" fill-opacity=".28"/>
  <rect x="110" y="120" width="980" height="540" rx="36" fill="#f5f3ed" fill-opacity=".06" stroke="#f5f3ed" stroke-opacity=".14"/>
  <path d="M168 560h864" stroke="url(#g2)" stroke-width="8"/>
  <path d="M190 508c108-62 218-93 330-93 106 0 210 28 312 82 98-104 198-166 300-186" stroke="#f5f3ed" stroke-opacity=".3" stroke-width="4" fill="none"/>
  <rect x="210" y="216" width="266" height="194" rx="24" fill="#153150"/>
  <rect x="506" y="216" width="482" height="42" rx="21" fill="#d7c49c" fill-opacity=".55"/>
  <rect x="506" y="286" width="364" height="24" rx="12" fill="#f5f3ed" fill-opacity=".34"/>
  <rect x="506" y="334" width="426" height="24" rx="12" fill="#f5f3ed" fill-opacity=".22"/>
  <rect x="506" y="382" width="290" height="24" rx="12" fill="#f5f3ed" fill-opacity=".22"/>
</svg>
